<?xml version="1.0" encoding="UTF-8" standalone="no"?>
<svg
   id="Camada_2"
   viewBox="0 0 180 180"
   version="1.1"
   width="180"
   height="180"
   xmlns="http://www.w3.org/2000/svg"
   xmlns:svg="http://www.w3.org/2000/svg">
  <defs
     id="defs1" />
  <circle
     style="fill:#5aaeb9;fill-opacity:1;stroke-width:0.121957"
     id="path1"
     cx="90"
     cy="90"
     r="90" />
  <g
     id="Components"
     transform="matrix(0.12056324,0,0,0.12336704,26.268308,37.349937)">
    <path
       id="f476d70c-70aa-469e-9a79-826b9feba17e_5"
       d="m 340.6206,862.4414 c 0.1075,8.21 5.2107,15.525 12.8782,18.4607 2.3339,0.8906 4.7555,1.3207 7.1578,1.3207 5.4995,0 10.8867,-2.2654 14.7521,-6.4731 L 537.276,699.8118 c 68.4384,39.596 144.1207,83.5649 206.3198,119.7973 3.102,1.8054 6.586,2.7254 10.0892,2.7254 2.3975,0 4.8047,-0.4306 7.0995,-1.3015 5.6509,-2.1381 10.0351,-6.7181 11.9336,-12.4573 l 258.2691,-782.303 c 0.033,-0.1 0.023,-0.2043 0.054,-0.3044 0.506,-1.6203 0.7954,-3.2844 0.8805,-4.9721 0.019,-0.383 -0.011,-0.7526 -0.014,-1.1346 -0.01,-1.394 -0.161,-2.7762 -0.4606,-4.1494 -0.078,-0.352 -0.122,-0.7013 -0.2177,-1.0484 -0.4408,-1.6021 -1.0714,-3.1566 -1.9241,-4.6388 -0.1589,-0.2771 -0.368,-0.5189 -0.5408,-0.789 -0.4745,-0.7414 -0.9174,-1.4967 -1.501,-2.1873 -0.3654,-0.4311 -0.8002,-0.7585 -1.1929,-1.1512 -0.1829,-0.1835 -0.2894,-0.4183 -0.4804,-0.5954 -0.146,-0.1359 -0.3322,-0.2022 -0.4814,-0.3327 -1.3041,-1.141 -2.6869,-2.1466 -4.1895,-2.8961 -0.1353,-0.0674 -0.2808,-0.0974 -0.4172,-0.1621 -1.3865,-0.6531 -2.8351,-1.1057 -4.3168,-1.4256 -0.4734,-0.1027 -0.9356,-0.1872 -1.4154,-0.2557 -1.5197,-0.2156 -3.0507,-0.2996 -4.5832,-0.1653 -0.138,0.0123 -0.2723,-0.0091 -0.4097,0.0059 -1.6706,0.1813 -3.3031,0.6515 -4.9015,1.2565 -0.1958,0.0749 -0.4044,0.0722 -0.5986,0.1535 L 12.3595,413.219 C 4.8978,416.3162 0.0242,423.5916 0,431.67 c -0.0246,8.0779 4.8047,15.3779 12.2465,18.519 l 324.8012,137.1363 3.5727,275.1161 z m 39.4264,-50.9299 -2.643,-203.566 c 27.5533,15.5684 72.4466,41.3575 124.3201,71.3152 L 380.0471,811.5115 Z M 742.4066,772.5301 C 606.1984,693.2232 454.6118,605.3227 392.1613,570.4046 L 970.6561,81.1701 Z M 900.6086,87.9106 353.3714,550.7141 71.9395,431.885 Z"
       style="fill:#ffffff;stroke-width:0px" />
  </g>
</svg>
